<svg width="121" height="22" viewBox="0 0 121 22" fill="none" xmlns="http://www.w3.org/2000/svg">
<path d="M11.9723 11.4791C12.9151 11.5538 13.7348 11.9627 14.4352 12.7018C15.1318 13.4449 15.482 14.4632 15.482 15.7607C15.482 17.353 14.9663 18.6229 13.9311 19.5704C12.8959 20.514 11.4104 20.9898 9.46697 20.9898H0V2.36159H9.44388C11.1141 2.36159 12.4495 2.82553 13.4577 3.7534C14.466 4.68127 14.9663 5.91188 14.9663 7.44916C14.9663 8.61686 14.6507 9.54473 14.0157 10.2288C13.3808 10.9129 12.6996 11.2943 11.9761 11.369V11.4791H11.9723ZM4.49104 10.0598H8.40867C9.07829 10.0598 9.61321 9.87106 10.0134 9.48968C10.4137 9.10831 10.6138 8.60506 10.6138 7.976C10.6138 7.40198 10.4175 6.93804 10.0288 6.58419C9.64015 6.23034 9.15525 6.05735 8.57415 6.05735H4.49104V10.0598ZM8.6819 17.2901C9.39 17.2901 9.93647 17.1053 10.329 16.7357C10.7177 16.3661 10.914 15.855 10.914 15.2063C10.914 14.593 10.7138 14.1094 10.3136 13.7477C9.91338 13.386 9.3977 13.2051 8.76272 13.2051H4.49104V17.2901H8.6819ZM31.0717 20.9858H26.7192V19.653C25.6301 20.8207 24.2331 21.4026 22.5283 21.4026C20.9312 21.4026 19.6497 20.8679 18.6761 19.8024C17.7063 18.7369 17.2214 17.3333 17.2214 15.5916V7.0324H21.547V14.648C21.547 15.4619 21.7663 16.1263 22.2012 16.6374C22.6361 17.1485 23.1979 17.4002 23.8868 17.4002C24.7758 17.4002 25.4685 17.0817 25.9687 16.4409C26.469 15.8 26.7153 14.8249 26.7153 13.5078V7.0324H31.0678V20.9858H31.0717ZM44.4794 20.9858H32.9535V20.1484L38.372 10.563H33.0882V7.0324H44.4139V7.86984L38.9954 17.4552H44.4794V20.9858ZM57.8871 20.9858H46.3612V20.1484L51.7797 10.563H46.4921V7.0324H57.8178V7.86984L52.3993 17.4552H57.8832V20.9858H57.8871ZM64.36 10.3114H72.2337V14.3138H64.36V20.9858H59.869V2.36159H72.9572V6.39154H64.36V10.3114ZM104.133 15.1473H94.1194C94.3772 16.8773 95.6433 17.8445 97.5598 17.8445C99.0684 17.8445 100.558 17.239 101.674 16.3622L103.344 19.3188C101.816 20.6595 99.8342 21.4026 97.5598 21.4026C92.9803 21.4026 89.8477 18.5522 89.8477 14.0072C89.8477 11.8565 90.5481 10.0873 91.9412 8.69549C93.3382 7.30368 95.0507 6.61171 97.0826 6.61171C99.0607 6.61171 100.719 7.28796 102.062 8.64045C103.405 9.99294 104.094 11.7818 104.129 14.0072V15.1473H104.133ZM95.3162 10.8107C94.7736 11.2 94.4003 11.7386 94.2002 12.4227H99.8342C99.6341 11.6993 99.2916 11.1528 98.799 10.7832C98.3103 10.4136 97.7368 10.2288 97.0865 10.2288C96.4515 10.2288 95.8627 10.4215 95.3162 10.8107ZM88.2121 15.1473H78.1987C78.4565 16.8773 79.7227 17.8445 81.6391 17.8445C83.1477 17.8445 84.637 17.239 85.753 16.3622L87.4232 19.3188C85.8954 20.6595 83.9135 21.4026 81.6391 21.4026C77.0596 21.4026 73.927 18.5522 73.927 14.0072C73.927 11.8565 74.6274 10.0873 76.0205 8.69549C77.4175 7.30368 79.13 6.61171 81.1619 6.61171C83.14 6.61171 84.7986 7.28796 86.1417 8.64045C87.4848 9.99294 88.1737 11.7818 88.2083 14.0072V15.1473H88.2121ZM79.3955 10.8107C78.8529 11.2 78.4796 11.7386 78.2795 12.4227H83.9135C83.7134 11.6993 83.3709 11.1528 82.8783 10.7832C82.3896 10.4136 81.8162 10.2288 81.1658 10.2288C80.527 10.2288 79.9382 10.4215 79.3955 10.8107ZM120.977 20.9858H116.625V19.8732C115.516 20.8915 114.104 21.4026 112.38 21.4026C110.529 21.4026 108.955 20.7106 107.658 19.3306C106.361 17.9506 105.711 16.1735 105.711 14.0072C105.711 11.8565 106.361 10.0873 107.658 8.69549C108.955 7.30368 110.529 6.61171 112.38 6.61171C114.104 6.61171 115.52 7.12283 116.625 8.14113V0.969788H120.977V20.9858ZM115.632 16.6099C116.294 15.9337 116.625 15.0687 116.625 14.0111C116.625 12.9731 116.294 12.1121 115.632 11.4241C114.97 10.74 114.185 10.394 113.277 10.394C112.314 10.394 111.526 10.7321 110.91 11.4083C110.294 12.0846 109.986 12.9495 109.986 14.0072C109.986 15.0805 110.294 15.9533 110.91 16.6217C111.526 17.2901 112.314 17.6243 113.277 17.6243C114.185 17.6243 114.97 17.2862 115.632 16.6099Z" fill="white"/>
</svg>
