<svg width="28" height="22" viewBox="0 0 28 22" fill="none" xmlns="http://www.w3.org/2000/svg">
<path d="M13.6006 14.3517C7.32296 14.3517 2.21228 14.4132 2.21228 14.4747C2.21228 14.5567 7.30284 14.5977 13.6006 14.5977C19.8984 14.5977 24.989 14.5362 24.989 14.4747C24.989 14.4132 19.8783 14.3517 13.6006 14.3517Z" fill="white"/>
<path d="M21.1661 11.4123H20.5423L18.0071 2.73762L15.3713 11.4123H14.7475L12.3532 1.87426H12.7757L15.0695 11.0012H15.0896L17.8461 1.91537H18.2083L20.8643 11.0012L23.2989 1.87426H23.7214L21.1661 11.4123ZM22.7355 0.969788C22.4739 0.969788 22.2526 1.15479 22.152 1.44258L20.7033 7.40388L18.8723 0.969788H17.4236C17.1822 0.969788 16.9608 1.13424 16.8401 1.44258L15.15 7.40388L13.7415 1.46314V1.44258C13.6409 1.15479 13.4196 0.969788 13.158 0.969788H10.985L13.9628 12.3785L14.0031 12.5429H16.0956L17.9467 6.29384L19.7979 12.5429H21.8904L24.9287 0.990344H22.7355V0.969788ZM9.51614 7.07498C9.51614 8.34946 9.53626 9.68561 8.53022 10.7134C7.9266 11.3301 7.02116 11.6796 5.95476 11.6796H3.19822V1.8537H5.95476C7.02116 1.8537 7.90648 2.1826 8.53022 2.81985C9.53626 3.84765 9.53626 5.08103 9.51614 6.37607V7.07498V7.07498ZM9.33505 2.10038C8.61071 1.36036 7.56442 0.969788 6.31694 0.969788H2.17206V12.5224H6.31694C7.56442 12.5224 8.61071 12.1318 9.33505 11.3918C10.5222 10.179 10.5021 8.61669 10.5021 7.11609V6.29384C10.5021 4.75213 10.5021 3.31319 9.33505 2.10038V2.10038ZM7.5443 9.56228C7.20225 9.99396 6.75959 10.179 6.11573 10.179H4.70727V3.33375H6.11573C6.75959 3.33375 7.20225 3.51876 7.5443 3.95044C7.88636 4.38212 7.96684 5.06047 7.96684 6.70497C7.94672 8.34946 7.90648 9.11004 7.5443 9.56228ZM8.24853 3.10763C7.70527 2.55261 6.92056 2.26483 5.97488 2.26483H3.60063V11.2273H5.95476C6.92056 11.2273 7.70527 10.9395 8.22841 10.3845C9.11372 9.48005 9.11372 8.30835 9.0936 7.05442V6.35551C9.11372 5.10158 9.13385 4.0121 8.24853 3.10763" fill="white"/>
<path d="M3.76255 20.087L4.20521 17.0859L4.92955 16.9831L4.80882 17.8259H5.53317L5.45268 18.4425H4.72834L4.48689 20.0459C4.46677 20.1487 4.50702 20.1898 4.62774 20.1898C4.76858 20.1898 4.94967 20.1281 5.11063 20.0665L5.2716 20.5598C5.03015 20.6831 4.72834 20.7859 4.38629 20.7859C3.92352 20.7859 3.70219 20.5187 3.76255 20.087ZM25.2514 20.087L25.694 17.0859L26.4184 16.9831L26.2976 17.8259H27.022L26.9415 18.4425H26.2171L25.9757 20.0459C25.9556 20.1487 25.9958 20.1898 26.1165 20.1898C26.2574 20.1898 26.4385 20.1281 26.5994 20.0665L26.7604 20.5598C26.519 20.6831 26.2171 20.7859 25.8751 20.7859C25.4123 20.7859 25.191 20.5187 25.2514 20.087ZM7.68607 18.6687C7.68607 18.6481 7.70619 18.4631 7.52511 18.4631C7.34402 18.4631 6.94161 18.6481 6.68004 18.792L6.39835 20.7242H5.69413L6.11666 17.867L6.72028 17.7642V18.1136C7.08245 17.9081 7.5251 17.7436 7.86715 17.7436C8.26957 17.7436 8.41041 18.0109 8.43053 18.3192C8.43053 18.4425 8.43053 18.5042 8.41041 18.607L8.1086 20.7037H7.40438L7.68607 18.6687ZM9.53717 19.8815C9.51704 20.0459 9.49692 20.1898 9.75849 20.1898C10.0603 20.1898 10.4828 20.0459 10.845 19.8609L11.006 20.4159C10.6639 20.6215 10.1408 20.8065 9.65789 20.8065C8.89331 20.8065 8.73234 20.3748 8.81282 19.7787L8.93355 18.8948C9.03415 18.2164 9.33596 17.8053 10.2011 17.8053C10.7444 17.8053 11.1267 18.0931 11.1468 18.5659C11.1669 19.0798 10.845 19.3881 10.0603 19.6348C9.71825 19.7376 9.65789 19.7581 9.51704 19.7992L9.53717 19.8815ZM10.503 18.5659C10.503 18.4425 10.3822 18.3398 10.2011 18.3398C9.87921 18.3398 9.73837 18.5453 9.69813 18.8125L9.65789 19.1003C9.75849 19.0798 9.77861 19.0592 10.0804 18.977C10.3822 18.8742 10.503 18.7509 10.503 18.5659V18.5659ZM22.7363 18.4425C22.4143 18.6275 22.193 18.7714 21.9113 18.9564L21.6498 20.7448H20.9455L21.3681 17.8875L21.9717 17.7848L21.9516 18.2164C22.1528 18.0725 22.4345 17.8875 22.6759 17.7848L22.7363 18.4425ZM22.7564 20.6009L22.8771 20.0665C23.0985 20.1487 23.4003 20.2103 23.6819 20.2103C24.0039 20.2103 24.0642 20.1487 24.0844 19.9637C24.1045 19.7787 24.0844 19.717 23.6417 19.5115C23.0381 19.2031 22.9576 18.9976 23.018 18.5453C23.0985 17.9698 23.3198 17.7848 24.0844 17.7848C24.3459 17.7848 24.7081 17.8464 24.9495 17.9286L24.8489 18.4837C24.6276 18.422 24.3057 18.3809 24.1045 18.3809C23.8228 18.3809 23.7423 18.4014 23.7021 18.607C23.6819 18.8125 23.7222 18.8537 24.0441 19.0181C24.7081 19.3881 24.8288 19.4909 24.7685 19.9431C24.6679 20.6009 24.4667 20.8065 23.6618 20.8065C23.4003 20.7859 23.018 20.7242 22.7564 20.6009V20.6009ZM13.7826 20.6009L13.9033 20.0665C14.1247 20.1487 14.4265 20.2103 14.7082 20.2103C15.0301 20.2103 15.0905 20.1487 15.1106 19.9637C15.1307 19.7787 15.1106 19.717 14.6679 19.5115C14.0643 19.2031 13.9838 18.9976 14.0442 18.5453C14.1247 17.9698 14.346 17.7848 15.1106 17.7848C15.3721 17.7848 15.7343 17.8464 15.9758 17.9286L15.8752 18.4837C15.6538 18.422 15.3319 18.3809 15.1307 18.3809C14.849 18.3809 14.7685 18.4014 14.7283 18.607C14.7082 18.8125 14.7484 18.8537 15.0703 19.0181C15.7343 19.3881 15.855 19.4909 15.7947 19.9431C15.6941 20.6009 15.4929 20.8065 14.688 20.8065C14.4265 20.7859 14.0241 20.7242 13.7826 20.6009V20.6009ZM11.4084 20.6009L11.5291 20.0665C11.7504 20.1487 12.0522 20.2103 12.3339 20.2103C12.6559 20.2103 12.7162 20.1487 12.7363 19.9637C12.7565 19.7787 12.7363 19.717 12.2937 19.5115C11.6901 19.2031 11.6096 18.9976 11.6699 18.5453C11.7504 17.9698 11.9718 17.7848 12.7363 17.7848C12.9979 17.7848 13.3601 17.8464 13.6015 17.9286L13.5009 18.4837C13.2796 18.422 12.9577 18.3809 12.7565 18.3809C12.4748 18.3809 12.3943 18.4014 12.354 18.607C12.3339 18.8125 12.3742 18.8537 12.6961 19.0181C13.3601 19.3881 13.4808 19.4909 13.4204 19.9431C13.3198 20.6009 13.1186 20.8065 12.3138 20.8065C12.0522 20.7859 11.6498 20.7242 11.4084 20.6009V20.6009ZM1.22736 17.8464L1.32796 17.1064H2.87725L2.97785 16.4692H0.724342L0 21.4026H0.704221L1.12675 18.4631H2.6358L2.29375 20.7448H2.99797L3.4205 17.8464H1.22736ZM18.511 17.8464L18.6116 17.1064H20.1608L20.2614 16.4692H18.0079L17.2836 21.4026H17.9878L18.4104 18.4631H19.8993L19.5572 20.7448H20.2614L20.684 17.8464H18.511Z" fill="white"/>
</svg>
