<svg width="89" height="22" viewBox="0 0 89 22" fill="none" xmlns="http://www.w3.org/2000/svg">
<path fill-rule="evenodd" clip-rule="evenodd" d="M32.3842 15.4561C32.3842 12.3912 30.8971 10.7147 25.5125 9.82395L25.5125 11.9983C29.2304 12.6532 30.1791 13.6486 30.1535 15.5347C30.1278 17.3422 28.8458 19.1759 24.7688 19.1759C21.333 19.1759 19.3586 17.316 18.9484 14.7226H16.4612C16.7689 17.9185 19.3842 21.4026 24.6919 21.4026C30.1022 21.4026 32.3842 18.3115 32.3842 15.4561ZM17.0509 6.52334C17.0509 10.4265 20.5124 11.5791 23.3842 11.8411L23.3842 9.64059C21.0252 9.32625 19.2816 8.46184 19.2816 6.54947C19.2816 4.66331 21.1021 3.1964 24.1021 3.1964C26.7945 3.1964 28.5893 4.55859 29.0252 6.68046H31.5894C31.3586 4.40147 29.2048 0.969788 24.1022 0.969788C20.256 0.969788 17.0509 3.1178 17.0509 6.52334ZM6.10352e-05 1.36284V3.64182H14.0514V1.36284H6.10352e-05ZM14.0514 10.0599H6.10352e-05V12.3127H14.0514V10.0599ZM14.0514 18.7307H6.10352e-05V21.0098H14.0514V18.7307ZM37.3327 1.36284V21.0098H35.102V1.36284H37.3327ZM39.4609 3.64182V1.36284H43.2301C46.8455 1.36284 49.1532 3.66805 49.1532 6.83778C49.1532 10.0075 46.7173 12.3127 43.2301 12.3127H39.4609V10.0336H43.2301C45.6148 10.0336 46.9224 8.72389 46.9224 6.83776C46.9224 4.95162 45.6147 3.6418 43.2301 3.6418L39.4609 3.64182ZM54.076 1.36284H51.8452V21.0098H54.076V1.36284ZM66.4606 6.83778C66.4606 3.66805 64.1529 1.36284 60.5375 1.36284H56.2042V3.6418H60.4606C62.8452 3.6418 64.1016 5.08261 64.1016 6.83776C64.1016 8.61904 62.8452 10.0336 60.4606 10.0336H56.2042V12.3127H60.5375C64.0247 12.3127 66.4606 10.0075 66.4606 6.83778ZM59.8708 14.2774L64.2298 21.0098H67.0247L62.5375 14.2774H59.8708ZM69.6654 1.36284H71.8961V21.0098H69.6654V1.36284ZM74.2802 1.36284V3.64182H88.8443V1.36284H74.2802ZM82.6905 21.0098V5.76369H80.4597V21.0098H82.6905Z" fill="white"/>
</svg>
