<svg width="172" height="22" viewBox="0 0 172 22" fill="none" xmlns="http://www.w3.org/2000/svg">
<path d="M22.114 20.9901H28.361L31.7102 1.40668H25.4631L24.228 8.41984H18.8123L20.0475 1.40668H13.8004L10.4512 20.9901H16.6983L17.9572 13.6615H23.3729L22.114 20.9901Z" fill="white"/>
<path d="M35.2494 1.38235L33.3492 12.2782C33.1829 13.1276 33.1117 13.9527 33.1117 14.7292C33.1117 20.5048 38.0523 21.3784 41.0214 21.3784C47.2447 21.3784 49.9288 19.2671 50.9027 13.5644L52.9929 1.35809H46.7459L44.9644 11.5988C44.3943 14.802 43.9905 16.4764 41.6628 16.4764C40.1426 16.4764 39.4062 15.6514 39.4062 13.9527C39.4062 13.2975 39.5012 12.4966 39.6913 11.5017L41.4965 1.35809H35.2494V1.38235Z" fill="white"/>
<path d="M86.0095 20.99H92.2565L93.1354 15.9425H96.0808C101.52 15.9425 104.537 12.9334 104.537 7.44901C104.537 3.59056 101.924 1.38226 97.3397 1.38226H89.3587L86.0095 20.99V20.99ZM95.7482 11.1133H93.943L94.7743 6.5026H96.4608C97.8385 6.5026 98.5748 7.20635 98.5748 8.4925C98.5748 10.1184 97.5059 11.1133 95.7482 11.1133Z" fill="white"/>
<path d="M116.675 0.969788C109.881 0.969788 105.819 5.45918 105.819 13.0062C105.819 18.2479 109.05 21.4026 114.466 21.4026C121.259 21.4026 125.321 16.9132 125.321 9.36617C125.344 4.10023 122.114 0.969788 116.675 0.969788V0.969788ZM114.846 16.3308C113.23 16.3308 112.28 15.1417 112.28 13.1518C112.28 12.3995 112.352 11.7443 112.494 10.9921C112.969 8.41975 113.777 6.06586 116.318 6.06586C117.933 6.06586 118.884 7.25494 118.884 9.24484C118.884 9.99711 118.812 10.6523 118.67 11.4046C118.195 13.9526 117.387 16.3308 114.846 16.3308V16.3308Z" fill="white"/>
<path d="M147.055 20.9901H153.302L155.772 6.64835H160.475L161.378 1.40668H145.392L144.489 6.64835H149.477L147.055 20.9901V20.9901Z" fill="white"/>
<path d="M136.698 8.63816C134.727 8.00722 133.919 7.74028 133.919 6.79387C133.919 6.16293 134.323 5.41065 135.511 5.41065C136.389 5.41065 137.126 5.92026 137.411 6.67253L142.922 5.14371C142.28 2.37727 139.952 0.969788 135.938 0.969788C128.385 0.969788 127.791 6.13866 127.791 7.71601C127.791 10.9193 129.454 12.8849 133.064 13.9041C134.014 14.171 135.107 14.4622 135.107 15.53C135.107 16.3793 134.489 16.9132 133.42 16.9132C132.446 16.9132 131.401 16.3308 131.045 15.3116L125.606 16.8161C126.199 19.7282 128.884 21.3783 133.088 21.3783C136.294 21.3783 141.663 20.5047 141.663 14.5836C141.686 11.623 140.047 9.68164 136.698 8.63816V8.63816Z" fill="white"/>
<path d="M6.95962 20.9901L10.3325 1.40668H0V20.9901H6.95962V20.9901Z" fill="white"/>
<path d="M164.062 1.40668L160.713 20.9901H171.045V1.40668H164.062V1.40668Z" fill="white"/>
<path d="M60.4513 15.2145H65.7007L66.5558 10.2883H61.3064L61.9002 6.6482H69.2399L70.1425 1.38226H56.5558L53.2067 20.99H59.4537L60.4513 15.2145Z" fill="white"/>
<path d="M76.8172 15.2145H82.0903L82.9454 10.2883H77.696L78.2899 6.6482H85.6295L86.5321 1.38226H72.9454L69.5963 20.99H75.8433L76.8172 15.2145Z" fill="white"/>
</svg>
