<svg width="44" height="22" viewBox="0 0 44 22" fill="none" xmlns="http://www.w3.org/2000/svg">
<path d="M14.2781 19.9274L14.2959 19.891L14.3137 19.9274C14.5276 20.2917 14.688 20.583 14.9554 20.6195C15.205 20.5648 15.2585 20.2917 15.3298 20.0185C15.3298 19.9821 15.3476 19.9639 15.3476 19.9274C15.205 19.8728 15.098 19.7635 15.0446 19.7089C15.0267 19.7635 15.0267 19.8182 15.0267 19.8546C15.0089 20.0003 14.9911 20.0731 14.9376 20.0731C14.9198 20.0731 14.9198 20.0731 14.9019 20.0549C14.7415 19.9457 14.5454 19.5086 14.5276 19.4904V19.4722V19.454C14.6346 19.2536 14.7415 19.0351 14.8485 18.8348C14.9554 18.598 15.0624 18.3977 15.1337 18.2885L14.7237 18.0699C14.688 18.252 14.5989 18.507 14.5276 18.7255C14.492 18.8348 14.4563 18.9258 14.4385 18.9987L14.4207 19.0897L14.4028 18.9987C14.3137 18.6709 14.2424 17.8696 14.2246 17.8332V17.815H14.8841L15.2406 17.8332V17.4872L14.8663 17.5054H14.2068V16.959H13.8146C13.8146 17.0137 13.8324 17.1594 13.8503 17.2504L13.8681 17.4872H12.6381L12.1034 17.5054V17.8514L12.6025 17.8332H13.8324V17.8514C13.8859 18.3431 14.0285 19.2172 14.1355 19.5268V19.545V19.5632C13.9394 19.9274 13.4581 20.3281 13.3155 20.4374C13.3868 20.4738 13.5116 20.5466 13.6542 20.6923C13.7433 20.583 14.0998 20.2006 14.2781 19.9274Z" fill="white"/>
<path d="M13.7611 19.8907V19.5632C13.3333 19.727 12.5668 19.8543 12.0499 19.8907C12.0677 19.9635 12.139 20.1818 12.1925 20.3273L13.7611 19.8907Z" fill="white"/>
<path d="M13.6364 18.1974L13.2799 18.2157H12.7273L12.3708 18.1974L12.3886 18.5252V19.0716L12.3708 19.4358L12.7451 19.4176H13.2799L13.6186 19.4358L13.6007 19.0169V18.5252L13.6364 18.1974ZM13.2977 19.1262H12.7273V18.5435H13.2977V19.1262Z" fill="white"/>
<path d="M14.4563 17.1228L14.7059 17.4321L15.0089 17.2501L14.7415 16.959L14.4563 17.1228Z" fill="white"/>
<path d="M15.8289 21.3116L15.8111 20.7835V16.9956L15.8289 16.4857L15.3119 16.5221H12.0856L11.5508 16.5039L11.5686 17.0866V20.8381L11.5508 21.4026H11.9608V21.1113H15.4367V21.3116H15.8289ZM11.9608 20.747V20.7288V16.8681H15.4367V20.747H11.9608Z" fill="white"/>
<path d="M21.319 19.363C21.4259 20.1279 22.0677 20.8017 22.3885 20.9292C22.4776 20.6742 22.6381 20.5103 22.7272 20.4375C21.6933 20.0004 21.622 19.1263 21.622 19.1263V19.1081L21.6399 19.0899C21.8894 18.8895 22.1746 18.7256 22.2994 18.671L21.8894 18.325C21.4972 18.6892 20.8912 19.1263 20.8734 19.1263L20.8377 19.1627L20.8199 19.1263C20.6416 18.7621 20.2851 18.4889 20.2673 18.4889L20.2138 18.4525L20.2673 18.416C20.3743 18.3432 20.6595 18.0518 20.6595 18.0518L20.6773 18.0336H21.5685L21.8894 18.0518V17.6512L21.5864 17.6694H19.483L19.073 17.6512V18.0518L19.4295 18.0336H20.1069L20.0356 18.1065C19.7147 18.4525 19.0908 18.7438 18.2887 18.9624C18.4313 19.0716 18.5026 19.2538 18.5383 19.3266C19.0374 19.1627 19.893 18.6892 19.9108 18.6892H19.9286H19.9464C20.0534 18.7256 20.1425 18.8531 20.1604 18.8531L20.1782 18.8895L20.1247 18.8713C19.5543 19.4905 18.6096 19.7637 18.3065 19.8547C18.4313 19.964 18.5026 20.1461 18.5383 20.2189C19.2513 19.9822 20.303 19.1809 20.3208 19.1627L20.3564 19.1445L20.3743 19.1809C20.3921 19.1991 20.4812 19.3084 20.4812 19.3812V19.3994L20.4634 19.4177C20.0891 19.8547 19.3939 20.4557 18.1996 20.7288C18.3422 20.8745 18.4313 21.0566 18.4669 21.1477C19.8395 20.6378 20.5525 19.8365 20.5525 19.8365L20.606 19.7637L20.6238 19.8547C20.6595 20.2007 20.6238 20.4557 20.4812 20.6196C20.303 20.8199 20.0356 20.8199 19.893 20.8199C19.9999 21.0202 20.0712 21.2388 20.0891 21.3298C20.2317 21.2934 20.7486 21.1295 20.8734 20.8927C21.0516 20.565 21.1051 20.0368 20.9981 19.5633V19.5269L21.319 19.3084V19.363Z" fill="white"/>
<path d="M18.3244 16.8499L18.3422 17.1777V17.724L18.3244 18.0336H18.77V17.2505H22.1747V17.9789H22.6025L22.5846 17.6147V17.1777L22.6025 16.8499L22.2281 16.8681H20.7665V16.8316C20.7308 16.6313 20.6417 16.3946 20.6239 16.3035L20.1426 16.3946C20.2139 16.5949 20.2495 16.8134 20.2495 16.8316V16.8863H18.6987L18.3244 16.8499Z" fill="white"/>
<path d="M26.72 20.5832C26.72 20.7653 26.72 20.9292 26.827 21.0566C26.9874 21.2205 27.3618 21.2752 28.0213 21.2388C29.2156 21.1841 29.2512 21.0931 29.4473 20.5285C29.4651 20.4921 29.4651 20.4557 29.483 20.4193C29.2869 20.3282 29.1443 20.2189 29.073 20.1643C28.966 20.8381 28.6452 20.8381 28.0569 20.8563H27.9856C27.95 20.8563 27.8965 20.8563 27.8609 20.8563C27.7896 20.8563 27.7361 20.8563 27.6826 20.8563C27.3439 20.8563 27.13 20.7653 27.13 20.2918V18.5799L27.6826 18.3432V19.8183L27.6648 20.31H28.0926L28.0748 19.8183V18.2157L28.7165 17.9972V19.0352C28.6808 19.3448 28.5917 19.4359 28.2887 19.4359C28.3956 19.5998 28.4313 19.8001 28.4491 19.8911C28.5739 19.8729 29.0552 19.8001 29.0908 19.4176C29.1086 19.2173 29.1265 17.6148 29.1265 17.378C29.0552 17.3962 28.8769 17.4873 28.7521 17.5419L28.0748 17.8151V16.9227L28.0926 16.3764H27.6648L27.6826 16.9227V17.9426L27.13 18.1247V17.5419L27.1479 17.1048H26.6844L26.7022 17.5419V18.325H26.6666C26.4883 18.3796 26.2744 18.4343 26.1853 18.4525L26.2922 18.8895C26.3635 18.8531 26.5061 18.7985 26.6309 18.7438L26.6844 18.7074V20.4921C26.72 20.5285 26.72 20.5649 26.72 20.5832Z" fill="white"/>
<path d="M26.2744 20.3099V19.8546L25.7397 20.1096V18.3249H25.9001C26.0071 18.3249 26.1675 18.3431 26.2388 18.3431V17.8878C26.1675 17.8878 26.0071 17.9061 25.9179 17.9061H25.7397V17.0137C25.7397 16.9227 25.7575 16.7223 25.7575 16.6313H25.3297C25.3297 16.7041 25.3475 16.8862 25.3475 17.0137V17.9243H25.1871C25.0267 17.9243 24.9375 17.9243 24.8128 17.9061V18.3431C24.8841 18.3431 25.0623 18.3249 25.1871 18.3249H25.3653V20.2189L25.3475 20.2371C25.2049 20.3099 24.991 20.3646 24.8306 20.3828C24.8662 20.4738 24.9554 20.6924 24.991 20.9655C25.098 20.838 25.5079 20.6013 26.2744 20.3099Z" fill="white"/>
<path d="M32.9946 20.401C32.9946 20.2188 32.9768 20.0003 32.9768 19.9093L32.3351 20.2188V18.8166H32.5846L32.8342 18.8348V18.3795L32.5668 18.3977H32.3351V17.1594H32.6916L32.9055 17.1776V16.7405L32.6738 16.7588H31.7112L31.4082 16.7405V17.1776L31.729 17.1594H31.9786V18.3977H31.6934L31.426 18.3613V18.8166L31.6755 18.7984H31.9786V20.3099H31.9607C31.6399 20.4556 31.3903 20.5102 31.319 20.5102L31.4438 21.0566C32.2281 20.6923 32.8877 20.4374 32.9946 20.401Z" fill="white"/>
<path d="M35.918 21.2751V20.8381L35.508 20.8563H34.5811V20.2007H35.2584L35.6328 20.2189V19.8L35.2406 19.8182H34.5811V19.1991H35.2228L35.6506 19.2173L35.6328 18.8713V17.0137L35.6506 16.5585L35.205 16.5767H33.6007L33.1907 16.5585L33.2085 17.0684V18.8349L33.1907 19.2355L33.6185 19.2173H34.2246V19.8365H33.6185L33.262 19.8182V20.2189L33.6363 20.2007H34.2246V20.8563H33.1907L32.7986 20.8381V21.2751L33.1907 21.2569H35.4545L35.918 21.2751ZM34.5989 16.9409H35.2584V17.7058H34.5989V16.9409ZM34.5989 18.0518H35.2584V18.8349H34.5989V18.0518ZM34.2246 18.8349H33.6007V18.0518H34.2246V18.8349ZM34.2246 17.6876H33.6007V16.9227H34.2246V17.6876Z" fill="white"/>
<path d="M0 0.969788H8.98395V14.1182H0V0.969788ZM7.6827 2.29919H1.30125V12.7888H7.6827V2.29919V2.29919Z" fill="#FFCC00"/>
<path d="M14.8841 6.87015H14.3315C13.6007 5.81391 12.8699 4.75767 12.139 3.57395V6.87015H11.5151V2.26276H12.0677C12.7986 3.319 13.5294 4.35703 14.2424 5.54074H14.2602V2.26276H14.8841V6.87015Z" fill="white"/>
<path d="M16.3458 5.04905C16.524 4.44808 16.7023 3.88354 16.8627 3.17331H16.8805C17.0588 3.88354 17.2192 4.44808 17.3796 5.04905H16.3458ZM16.6488 2.26276L15.098 6.85194H15.7575L16.1497 5.59538H17.5044L17.8609 6.85194H18.7165L17.2905 2.26276H16.6488Z" fill="white"/>
<path d="M19.4474 6.87015V2.88193H18.2709V2.26276H21.4082V2.88193H20.2139V6.87015H19.4474Z" fill="white"/>
<path d="M22.4242 2.26276H21.6577V6.85194H22.4242V2.26276Z" fill="white"/>
<path d="M24.795 6.28743C23.9928 6.28743 23.7076 5.37687 23.7076 4.50274C23.7076 3.64683 24.0285 2.84554 24.795 2.84554C25.5615 2.84554 25.8823 3.64683 25.8823 4.50274C25.8823 5.37687 25.5971 6.28743 24.795 6.28743ZM24.795 6.94302C25.9714 6.94302 26.7023 5.86857 26.7023 4.50274C26.7023 3.20976 25.9001 2.18994 24.795 2.18994C23.6898 2.18994 22.8877 3.20976 22.8877 4.50274C22.8877 5.86857 23.6185 6.94302 24.795 6.94302Z" fill="white"/>
<path d="M30.5347 6.87015H29.9821C29.2513 5.81391 28.5204 4.75767 27.7896 3.57395V6.87015H27.1657V2.26276H27.7183C28.4491 3.319 29.18 4.35703 29.893 5.54074H29.9108V2.26276H30.5347V6.87015V6.87015Z" fill="white"/>
<path d="M32.0142 5.04905C32.1925 4.44808 32.3707 3.88354 32.5312 3.17331H32.549C32.7272 3.88354 32.8877 4.44808 33.0659 5.04905H32.0142ZM32.2994 2.26276L30.7486 6.85194H31.426L31.8181 5.59538H33.1729L33.5294 6.85194H34.385L32.959 2.26276H32.2994Z" fill="white"/>
<path d="M34.5989 2.26276H35.3653V6.25098H36.8983V6.87015H34.5989V2.26276Z" fill="white"/>
<path d="M14.4029 10.7127V12.6066C13.9929 12.7705 13.5651 12.8798 13.1194 12.8798C11.8004 12.8798 10.9626 11.8236 10.9626 10.4759C10.9626 9.21937 11.8004 8.12671 13.1551 8.12671C13.5651 8.12671 13.9929 8.29061 14.2424 8.47272L13.9929 9.01905C13.779 8.89157 13.4581 8.78231 13.1729 8.78231C12.353 8.78231 11.7825 9.4379 11.7825 10.4941C11.7825 11.5868 12.4243 12.2242 13.0838 12.2242C13.2977 12.2242 13.4581 12.206 13.6186 12.1149V10.6945H14.4029V10.7127Z" fill="white"/>
<path d="M17.1657 8.83695H15.8823V10.0935H17.1479V10.7127H15.8823V12.206H17.3975V12.807H15.1158V8.21777H17.1657V8.83695Z" fill="white"/>
<path d="M19.5366 12.2424C18.7344 12.2424 18.4492 11.3319 18.4492 10.4578C18.4492 9.62005 18.7701 8.80056 19.5366 8.80056C20.3031 8.80056 20.6239 9.60184 20.6239 10.4578C20.6239 11.3319 20.3387 12.2424 19.5366 12.2424ZM19.5366 12.898C20.713 12.898 21.4439 11.8236 21.4439 10.4578C21.4439 9.16478 20.6417 8.14496 19.5366 8.14496C18.4314 8.14496 17.6293 9.16478 17.6293 10.4578C17.6293 11.8236 18.3601 12.898 19.5366 12.898Z" fill="white"/>
<path d="M25.1515 10.7127V12.6066C24.7415 12.7705 24.3137 12.8798 23.868 12.8798C22.549 12.8798 21.7112 11.8236 21.7112 10.4759C21.7112 9.21937 22.549 8.12671 23.9037 8.12671C24.3137 8.12671 24.7415 8.29061 24.991 8.47272L24.7415 9.01905C24.5276 8.89157 24.2067 8.78231 23.9215 8.78231C23.1016 8.78231 22.5311 9.4379 22.5311 10.4941C22.5311 11.5868 23.1729 12.2242 23.8324 12.2242C24.0463 12.2242 24.2067 12.206 24.3672 12.1149V10.6945H25.1515V10.7127Z" fill="white"/>
<path d="M26.631 8.83697H26.9697C27.4331 8.83697 27.6827 9.11014 27.6827 9.58362C27.6827 10.2028 27.3083 10.476 26.9518 10.4942C26.8805 10.4942 26.7023 10.5124 26.631 10.5124V8.83697ZM28.5918 12.807L27.6827 10.8948C28.1818 10.6217 28.467 10.0753 28.467 9.52899C28.467 8.63665 27.9322 8.19958 27.0766 8.19958H25.8823V12.7888H26.6488V11.0587H26.9875H27.0053L27.7361 12.7888H28.5918V12.807Z" fill="white"/>
<path d="M29.8574 11.0041C30.0356 10.4031 30.2139 9.83856 30.3743 9.12833H30.3921C30.5704 9.83856 30.7308 10.4031 30.8912 11.0041H29.8574ZM30.1604 8.21777L28.6096 12.807H29.287L29.6791 11.5504H31.0338L31.3903 12.807H32.246L30.8199 8.21777H30.1604Z" fill="white"/>
<path d="M33.2442 12.807H32.4777V8.21777H33.672C34.5276 8.21777 35.0624 8.65484 35.0624 9.54718C35.0624 10.3303 34.5098 11.0769 33.5829 11.0769H33.2264V10.5124C33.262 10.5124 33.4759 10.4942 33.565 10.4942C33.9394 10.4759 34.2959 10.2028 34.2959 9.5836C34.2959 9.11011 34.0463 8.83695 33.5829 8.83695H33.2264V12.807H33.2442Z" fill="white"/>
<path d="M38.6452 12.807H37.8787V10.6034H36.2744V12.807H35.5079V8.21777H36.2744V9.98425H37.8787V8.23598H38.6452V12.807Z" fill="white"/>
<path d="M40.1604 8.21777H39.3939V12.807H40.1604V8.21777Z" fill="white"/>
<path d="M43.6185 9.05547C43.4403 8.94621 43.1194 8.80052 42.8342 8.80052C42.0499 8.80052 41.4795 9.45611 41.4795 10.5124C41.4795 11.605 42.1034 12.2424 42.852 12.2424C43.1551 12.2424 43.4224 12.1513 43.6185 12.0057L43.8324 12.5702C43.6007 12.7341 43.1907 12.8798 42.8164 12.8798C41.4973 12.8798 40.6595 11.8236 40.6595 10.4759C40.6595 9.21937 41.4795 8.12671 42.8342 8.12671C43.2264 8.12671 43.6007 8.29061 43.8681 8.47272L43.6185 9.05547Z" fill="white"/>
</svg>
