<svg width="58" height="22" viewBox="0 0 58 22" fill="none" xmlns="http://www.w3.org/2000/svg">
<path d="M57.1361 0.969788L15.3361 19.155C11.8694 20.6534 8.95834 21.4026 6.60278 21.4026C3.93611 21.4026 2.00278 20.4491 0.802778 18.542C0.0472222 17.316 -0.175 15.7609 0.136111 13.8765C0.447222 11.9922 1.26944 9.98293 2.60278 7.84883C3.71389 6.1234 5.53611 3.85308 8.06945 1.0379C7.18056 2.4909 6.55834 3.9893 6.20278 5.53312C5.53611 8.43912 6.13611 10.5732 8.00278 11.9354C8.89167 12.5711 10.1139 12.8889 11.6694 12.8889C12.9139 12.8889 14.3139 12.6846 15.8694 12.2759L57.1361 0.969788Z" fill="white"/>
</svg>
